<mxfile host="app.diagrams.net" modified="2023-10-11T07:13:44.530Z" agent="Mozilla/5.0 (Windows NT 10.0; Win64; x64) AppleWebKit/537.36 (KHTML, like Gecko) Chrome/117.0.0.0 Safari/537.36 Edg/117.0.2045.60" etag="J2I5riC61FCKLLrCr-vX" version="22.0.4" type="github">
  <diagram name="第 1 页" id="jTqTJonYadrUdga8ndd9">
    <mxGraphModel dx="746" dy="467" grid="1" gridSize="10" guides="1" tooltips="1" connect="1" arrows="1" fold="1" page="1" pageScale="1" pageWidth="827" pageHeight="1169" math="0" shadow="0">
      <root>
        <mxCell id="0" />
        <mxCell id="1" parent="0" />
        <mxCell id="KtUqIfI96jS8Bpx3_uGm-8" style="edgeStyle=orthogonalEdgeStyle;rounded=0;orthogonalLoop=1;jettySize=auto;html=1;exitX=0.5;exitY=1;exitDx=0;exitDy=0;entryX=0.5;entryY=0;entryDx=0;entryDy=0;" edge="1" parent="1" source="KtUqIfI96jS8Bpx3_uGm-1" target="KtUqIfI96jS8Bpx3_uGm-2">
          <mxGeometry relative="1" as="geometry" />
        </mxCell>
        <mxCell id="KtUqIfI96jS8Bpx3_uGm-1" value="收集需求" style="rounded=0;whiteSpace=wrap;html=1;fillColor=#dae8fc;strokeColor=#6c8ebf;" vertex="1" parent="1">
          <mxGeometry x="280" y="120" width="120" height="40" as="geometry" />
        </mxCell>
        <mxCell id="KtUqIfI96jS8Bpx3_uGm-9" style="edgeStyle=orthogonalEdgeStyle;rounded=0;orthogonalLoop=1;jettySize=auto;html=1;exitX=0.5;exitY=1;exitDx=0;exitDy=0;entryX=0.5;entryY=0;entryDx=0;entryDy=0;" edge="1" parent="1" source="KtUqIfI96jS8Bpx3_uGm-2" target="KtUqIfI96jS8Bpx3_uGm-7">
          <mxGeometry relative="1" as="geometry" />
        </mxCell>
        <mxCell id="KtUqIfI96jS8Bpx3_uGm-2" value="IT内部评审" style="rounded=0;whiteSpace=wrap;html=1;fillColor=#f8cecc;strokeColor=#b85450;" vertex="1" parent="1">
          <mxGeometry x="280" y="200" width="120" height="40" as="geometry" />
        </mxCell>
        <mxCell id="KtUqIfI96jS8Bpx3_uGm-11" style="edgeStyle=orthogonalEdgeStyle;rounded=0;orthogonalLoop=1;jettySize=auto;html=1;exitX=0.5;exitY=1;exitDx=0;exitDy=0;entryX=0.5;entryY=0;entryDx=0;entryDy=0;" edge="1" parent="1" source="KtUqIfI96jS8Bpx3_uGm-3" target="KtUqIfI96jS8Bpx3_uGm-4">
          <mxGeometry relative="1" as="geometry" />
        </mxCell>
        <mxCell id="KtUqIfI96jS8Bpx3_uGm-3" value="领域对接确认" style="rounded=0;whiteSpace=wrap;html=1;fillColor=#d5e8d4;strokeColor=#82b366;" vertex="1" parent="1">
          <mxGeometry x="280" y="360" width="120" height="40" as="geometry" />
        </mxCell>
        <mxCell id="KtUqIfI96jS8Bpx3_uGm-12" style="edgeStyle=orthogonalEdgeStyle;rounded=0;orthogonalLoop=1;jettySize=auto;html=1;exitX=0.5;exitY=1;exitDx=0;exitDy=0;entryX=0.5;entryY=0;entryDx=0;entryDy=0;" edge="1" parent="1" source="KtUqIfI96jS8Bpx3_uGm-4" target="KtUqIfI96jS8Bpx3_uGm-5">
          <mxGeometry relative="1" as="geometry" />
        </mxCell>
        <mxCell id="KtUqIfI96jS8Bpx3_uGm-4" value="排期开发" style="rounded=0;whiteSpace=wrap;html=1;fillColor=#d5e8d4;strokeColor=#82b366;" vertex="1" parent="1">
          <mxGeometry x="280" y="440" width="120" height="40" as="geometry" />
        </mxCell>
        <mxCell id="KtUqIfI96jS8Bpx3_uGm-13" style="edgeStyle=orthogonalEdgeStyle;rounded=0;orthogonalLoop=1;jettySize=auto;html=1;exitX=0.5;exitY=1;exitDx=0;exitDy=0;" edge="1" parent="1" source="KtUqIfI96jS8Bpx3_uGm-5">
          <mxGeometry relative="1" as="geometry">
            <mxPoint x="340" y="590" as="targetPoint" />
          </mxGeometry>
        </mxCell>
        <mxCell id="KtUqIfI96jS8Bpx3_uGm-5" value="更新到已完成" style="rounded=0;whiteSpace=wrap;html=1;fillColor=#d5e8d4;strokeColor=#82b366;" vertex="1" parent="1">
          <mxGeometry x="280" y="520" width="120" height="40" as="geometry" />
        </mxCell>
        <mxCell id="KtUqIfI96jS8Bpx3_uGm-18" style="edgeStyle=orthogonalEdgeStyle;rounded=0;orthogonalLoop=1;jettySize=auto;html=1;exitX=0.5;exitY=1;exitDx=0;exitDy=0;entryX=0.5;entryY=0;entryDx=0;entryDy=0;" edge="1" parent="1" source="KtUqIfI96jS8Bpx3_uGm-6" target="KtUqIfI96jS8Bpx3_uGm-17">
          <mxGeometry relative="1" as="geometry" />
        </mxCell>
        <mxCell id="KtUqIfI96jS8Bpx3_uGm-6" value="对外公布已完成" style="rounded=0;whiteSpace=wrap;html=1;fillColor=#dae8fc;strokeColor=#6c8ebf;" vertex="1" parent="1">
          <mxGeometry x="280" y="600" width="120" height="40" as="geometry" />
        </mxCell>
        <mxCell id="KtUqIfI96jS8Bpx3_uGm-10" style="edgeStyle=orthogonalEdgeStyle;rounded=0;orthogonalLoop=1;jettySize=auto;html=1;exitX=0.5;exitY=1;exitDx=0;exitDy=0;" edge="1" parent="1" source="KtUqIfI96jS8Bpx3_uGm-7">
          <mxGeometry relative="1" as="geometry">
            <mxPoint x="340" y="350" as="targetPoint" />
          </mxGeometry>
        </mxCell>
        <mxCell id="KtUqIfI96jS8Bpx3_uGm-7" value="对外公开" style="rounded=0;whiteSpace=wrap;html=1;fillColor=#dae8fc;strokeColor=#6c8ebf;" vertex="1" parent="1">
          <mxGeometry x="280" y="280" width="120" height="40" as="geometry" />
        </mxCell>
        <mxCell id="KtUqIfI96jS8Bpx3_uGm-16" style="edgeStyle=orthogonalEdgeStyle;rounded=0;orthogonalLoop=1;jettySize=auto;html=1;exitX=0.5;exitY=1;exitDx=0;exitDy=0;entryX=0.5;entryY=0;entryDx=0;entryDy=0;" edge="1" parent="1" source="KtUqIfI96jS8Bpx3_uGm-15" target="KtUqIfI96jS8Bpx3_uGm-1">
          <mxGeometry relative="1" as="geometry" />
        </mxCell>
        <mxCell id="KtUqIfI96jS8Bpx3_uGm-15" value="开始" style="ellipse;whiteSpace=wrap;html=1;" vertex="1" parent="1">
          <mxGeometry x="305" y="20" width="70" height="60" as="geometry" />
        </mxCell>
        <mxCell id="KtUqIfI96jS8Bpx3_uGm-17" value="结束" style="ellipse;whiteSpace=wrap;html=1;" vertex="1" parent="1">
          <mxGeometry x="305" y="680" width="70" height="60" as="geometry" />
        </mxCell>
      </root>
    </mxGraphModel>
  </diagram>
</mxfile>
